:SAMPLES-PER-SECOND 24
:FULLY-SPECIFIED
:DEGREES
628
root  -2.11953 39.5935 44.4471 -20.2278 50.8844 -23.9738
RightUpLeg  -2.95878 -9.60009 -2.86987
RightLeg  19.7328 -9.96685 -4.12942
RightFoot  -11.2484 -0.0857441 12.4778
RightToes  -2.08645e-008 3.77894e-005 6.81332e-007
Spine  1.21476 8.21874 6.81042
Spine1  9.65683 9.4698 -3.63372
HEad  -39.9602 -31.1792 24.4189
LeftShoulder1  4.63473 -9.73916 -28.9629
LeftArm  -38.3681 63.7786 -48.5665
LeftForeArm  112.339 -79.9407 -104.746
LeftHand  -0.603138 -3.09111 8.49209
RightShoulder  3.31157 5.76379 29.8215
RightArm  -0.894267 5.2158 19.0704
RightForeArm  110.269 80.4573 97.6404
RightHand  -0.158106 6.23883 -1.91754
LeftUpLeg  -11.6288 -2.78218 3.13597
LeftLeg  15.6183 7.2915 2.91898
LeftFoot  -4.81445 -0.413196 7.74072
LeftToes  1.24767e-006 1.47042e-008 1.32732e-009
629
root  -2.06018 39.7326 44.2381 -14.8115 47.3563 -19.6503
RightUpLeg  -1.50639 -17.2152 -0.0191065
RightLeg  27.2736 -11.0994 -6.39122
RightFoot  -10.9639 -0.113225 11.8405
RightToes  -2.08645e-008 3.77894e-005 6.81332e-007
Spine  -1.72831 8.39529 6.61612
Spine1  9.98732 9.70871 -4.03578
HEad  -37.3106 -29.0145 23.1992
LeftShoulder1  5.26918 -10.5203 -31.572
LeftArm  -35.692 56.9139 -49.6255
LeftForeArm  101.985 -80.1735 -95.1919
LeftHand  -0.632924 -3.33073 8.66933
RightShoulder  3.68255 6.26331 31.8146
RightArm  7.56463 1.42488 24.8195
RightForeArm  152.739 76.3936 137.407
RightHand  -0.0351737 7.43058 -0.677233
LeftUpLeg  -11.5286 -0.47461 1.55905
LeftLeg  11.744 8.93026 2.64028
LeftFoot  -2.98871 -0.554667 7.83712
LeftToes  1.24767e-006 1.47042e-008 1.32732e-009
630
root  -2.03052 39.8248 43.9899 -8.48706 42.3675 -14.8517
RightUpLeg  -2.37332 -21.8713 1.43502
RightLeg  36.2726 -11.3978 -9.12427
RightFoot  -10.2624 -0.183115 11.9251
RightToes  -2.08645e-008 3.77894e-005 6.81332e-007
Spine  -5.65404 8.27573 6.43318
Spine1  10.4391 9.88746 -5.8385
HEad  -33.5862 -25.5671 21.1497
LeftShoulder1  6.01033 -11.4569 -34.1632
LeftArm  -23.9998 48.4753 -41.9834
LeftForeArm  92.885 -80.2541 -84.341
LeftHand  -0.635755 -3.46006 8.59143
RightShoulder  4.07484 6.7075 34.0128
RightArm  15.2447 -3.61315 29.7297
RightForeArm  158.026 74.9841 142.327
RightHand  -0.0391878 8.21279 -0.71276
LeftUpLeg  -12.0795 0.743893 0.140178
LeftLeg  7.3846 13.0729 1.21807
LeftFoot  -1.17698 -0.679302 7.71437
LeftToes  1.24767e-006 1.47042e-008 1.32732e-009
631
root  -2.06669 39.8211 43.5335 -3.04248 34.1408 -9.98151
RightUpLeg  -4.19211 -21.7399 1.5472
RightLeg  44.7346 -9.55592 -10.2893
RightFoot  -10.2347 -0.199139 13.332
RightToes  -2.08645e-008 3.77894e-005 6.81332e-007
Spine  -7.9781 8.19798 6.35079
Spine1  10.2322 10.192 -8.26601
HEad  -29.2551 -20.0514 18.4075
LeftShoulder1  6.43453 -12.0151 -35.4368
LeftArm  -14.1991 41.0272 -35.39
LeftForeArm  94.0522 -80.3373 -83.3409
LeftHand  -0.531322 -3.30042 7.34424
RightShoulder  4.26727 6.93753 34.969
RightArm  20.49 -7.45954 33.6379
RightForeArm  146.026 77.4753 131.725
RightHand  -0.022443 8.58754 -0.572682
LeftUpLeg  -11.9785 0.387294 -1.00108
LeftLeg  2.13229 21.5494 -1.34409
LeftFoot  0.95287 -0.916116 8.43526
LeftToes  1.24767e-006 1.47042e-008 1.32732e-009
632
root  -2.13986 39.7166 42.882 0.083252 24.1284 -6.54456
RightUpLeg  -5.69357 -19.4206 0.918035
RightLeg  51.2832 -7.25812 -9.97117
RightFoot  -7.98997 -0.441102 13.3178
RightToes  -2.08645e-008 3.77894e-005 6.81332e-007
Spine  -8.42474 7.25347 5.00657
Spine1  9.22701 9.01511 -7.9982
HEad  -25.4423 -11.9219 15.1514
LeftShoulder1  6.29344 -11.9067 -34.8227
LeftArm  -8.72428 36.4134 -32.1814
LeftForeArm  96.8908 -80.4186 -85.068
LeftHand  -0.466141 -3.76388 6.17381
RightShoulder  4.18708 6.97092 34.0819
RightArm  24.6134 -8.16077 36.5333
RightForeArm  114.774 80.1936 103.039
RightHand  -0.0220386 8.24 -0.56898
LeftUpLeg  -11.8697 0.316364 -1.95368
LeftLeg  -2.43943 30.5114 -3.66492
LeftFoot  2.8969 -1.25671 9.89463
LeftToes  1.24767e-006 1.47042e-008 1.32732e-009
